<svg width="815" height="95" viewBox="0 0 815 95" fill="none" xmlns="http://www.w3.org/2000/svg">
<path d="M482 30.938V33.227L517.165 53.0323L548.714 35.3502V42.5491L517.165 60.3971L483.791 41.4212L482 42.3832V56.1507L517.165 75.9228L548.714 58.2739V65.3069L517.165 83.1217L483.791 64.1458L482 65.1411V67.596L517.165 87.3681L552.297 67.596V53.8617L550.672 52.8664L517.165 71.8423L485.749 53.8617V46.8286L517.165 64.4776L552.297 44.6723V31.1039L550.672 30.1418L517.165 49.1177L487.374 32.265L517.165 15.4122L541.847 29.3124L543.97 28.0186V26.194L517.165 11L482 30.938Z" fill="#EF3E2B"/>
<path d="M586.898 63.0848C582.32 63.0848 578.671 59.336 578.671 54.5589C578.671 49.7817 582.32 46.033 586.898 46.033C591.476 46.033 595.125 49.7817 595.125 54.5589C595.125 59.336 591.609 63.0848 586.898 63.0848ZM600.732 67.7624V30.1091H594.86V44.2084C594.86 44.4074 594.76 44.6065 594.561 44.706C594.396 44.7723 594.197 44.7392 594.064 44.6065C592.14 42.2842 589.088 40.9573 585.637 40.9573C578.439 40.9573 572.832 47.0614 572.832 54.7579C572.832 58.5066 574.159 62.0563 576.481 64.6108C578.837 67.1652 582.154 68.5918 585.604 68.5586C588.822 68.5918 591.907 67.1984 594.031 64.8098C594.13 64.644 594.329 64.5776 594.495 64.6771C594.495 64.6771 594.528 64.6771 594.528 64.7103C594.727 64.8098 594.827 65.0089 594.827 65.2079V68.061H600.699L600.732 67.7624Z" fill="#111111"/>
<path d="M617.882 63.0843C613.304 63.0843 609.655 59.3356 609.655 54.5584C609.655 49.7812 613.304 46.0325 617.882 46.0325C622.461 46.0325 626.11 49.7812 626.11 54.5584C626.11 59.3356 622.56 63.0843 617.882 63.0843ZM631.584 67.7619V41.4544H625.811V44.1084C625.811 44.3074 625.712 44.5065 625.513 44.606C625.347 44.6723 625.148 44.6392 625.015 44.5065C623.091 42.1842 620.039 40.9568 616.589 40.9568C609.39 40.9568 603.783 47.0609 603.783 54.7574C603.783 62.454 609.357 68.5581 616.589 68.5581C619.84 68.5913 622.925 67.1648 625.015 64.6767C625.115 64.5108 625.347 64.4445 625.513 64.5772C625.513 64.5772 625.513 64.5772 625.546 64.5772C625.745 64.6767 625.844 64.8757 625.844 65.0748V67.9278H631.617L631.584 67.7619Z" fill="#111111"/>
<path d="M667.014 63.0843C662.436 63.0843 658.787 59.3356 658.787 54.5584C658.787 49.7812 662.436 46.0325 667.014 46.0325C671.592 46.0325 675.242 49.7812 675.242 54.5584C675.242 59.3356 671.692 63.0843 667.014 63.0843ZM680.749 67.7619V41.4544H675.076V44.1084C675.076 44.3074 674.976 44.5065 674.777 44.606C674.611 44.6723 674.412 44.6392 674.28 44.5065C672.356 42.1842 669.303 40.9568 665.853 40.9568C658.654 40.9568 653.048 47.0609 653.048 54.7574C653.048 62.454 658.621 68.5581 665.853 68.5581C669.104 68.5913 672.19 67.1648 674.28 64.6767C674.379 64.5108 674.611 64.4445 674.777 64.5772C674.777 64.5772 674.777 64.5772 674.81 64.5772C675.009 64.6767 675.109 64.8757 675.109 65.0748V67.9278H680.782L680.749 67.7619Z" fill="#111111"/>
<path d="M690.702 54.658C690.702 49.8809 694.352 46.1322 698.93 46.1322C703.508 46.1322 707.157 49.8809 707.157 54.658C707.157 59.4352 703.508 63.1839 698.93 63.1839C694.318 63.0844 690.636 59.2693 690.702 54.658ZM691.299 64.6104H691.499C691.664 64.6436 691.797 64.71 691.897 64.8095C693.821 67.1317 696.873 68.4587 700.323 68.4587C707.522 68.4587 713.128 62.3546 713.128 54.658C713.128 50.9093 711.801 47.3596 709.479 44.8052C707.124 42.2507 703.806 40.8242 700.356 40.8574C697.138 40.8242 694.053 42.1844 691.93 44.6061C691.83 44.8052 691.631 44.8052 691.432 44.7056C691.233 44.6061 691.134 44.4071 691.134 44.208V30.0093H685.229V67.6625H691.034V65.0085C691.034 64.8427 691.134 64.6768 691.299 64.6104Z" fill="#111111"/>
<path d="M729.682 46.8624C730.146 46.8292 730.644 46.8624 731.108 46.9619V40.9573C730.909 40.9573 730.511 40.8577 730.08 40.8577C727.127 40.7914 724.374 42.3506 722.881 44.9051C722.815 45.1041 722.582 45.2036 722.417 45.1373H722.383C722.184 45.0378 722.018 44.8719 721.985 44.6397V41.3885H716.213V67.5965H721.985V56.2176C722.052 50.4121 725.004 46.8624 729.682 46.8624Z" fill="#111111"/>
<path d="M740.663 41.4543H734.758V67.6623H740.663V41.4543Z" fill="#111111"/>
<path d="M737.579 30.1091C735.622 30.1091 734.029 31.7015 734.029 33.6588C734.029 35.6161 735.622 37.2085 737.579 37.2085C739.536 37.2085 741.129 35.6161 741.129 33.6588C741.129 31.7015 739.536 30.1091 737.579 30.1091Z" fill="#111111"/>
<path d="M757.781 40.8575C749.753 40.8575 743.881 46.6299 743.881 54.6581C743.881 58.5064 745.208 62.0561 747.729 64.511C750.284 67.0655 753.701 68.3593 757.682 68.3593C760.933 68.3593 763.454 67.7621 768.231 64.2124L764.98 60.7623C762.658 62.2883 760.402 63.0845 758.279 63.0845C753.402 63.0845 749.753 59.4353 749.753 54.6581C749.753 49.881 753.402 46.2318 758.279 46.2318C760.601 46.2318 762.757 46.9284 764.88 48.554L768.53 45.1038C764.283 41.2224 760.435 40.8243 757.781 40.8575Z" fill="#111111"/>
<path d="M778.516 56.1841C778.583 56.1177 778.716 56.0514 778.815 56.0846C778.981 56.1177 779.114 56.1841 779.213 56.2836L788.436 67.762H795.568L783.592 53.2315C783.393 53.0325 783.493 52.7339 783.592 52.5349L794.673 41.4545H787.54L777.986 51.0088C777.853 51.1415 777.654 51.1747 777.488 51.1084C777.289 51.0088 777.189 50.8098 777.189 50.6107V30.0093H771.517V67.6625H777.322V57.5111C777.355 57.3452 777.422 57.2125 777.521 57.113L778.516 56.1841Z" fill="#111111"/>
<path d="M805.121 68.3592C809.899 68.3592 814.676 65.5061 814.676 60.0323C814.676 56.4826 812.453 53.9282 807.775 52.4021L804.624 51.3737C802.501 50.6439 801.472 49.6486 801.472 48.2221C801.472 46.5966 802.899 45.5682 804.922 45.5682C806.846 45.5682 808.572 46.7956 809.699 49.0183L814.377 46.4639C812.652 42.9142 809.102 40.791 805.022 40.791C799.847 40.791 796.098 44.1417 796.098 48.7198C796.098 52.369 798.221 54.8239 802.7 56.2504L805.951 57.2788C808.173 57.9755 809.202 58.9044 809.202 60.4304C809.202 62.6531 807.178 63.4825 805.354 63.4825C803.031 63.4825 800.875 61.9565 799.88 59.5347L795.202 61.9564C796.595 65.9042 800.444 68.3592 805.121 68.3592Z" fill="#111111"/>
<path d="M647.741 68.0607C649.2 68.0275 650.66 67.928 652.12 67.7621V62.7859C651.158 62.9186 650.162 62.9849 649.167 62.9849C646.845 62.9849 645.02 62.5868 645.02 57.5111V46.7625C644.987 46.4971 645.219 46.2649 645.452 46.2649C645.485 46.2649 645.485 46.2649 645.518 46.2649H651.191V41.4878H645.518C645.253 41.5209 645.02 41.2887 645.02 41.0565C645.02 41.0233 645.02 41.0233 645.02 40.9901V33.4927H639.215V41.1228C639.248 41.3882 639.016 41.6205 638.784 41.6205C638.75 41.6205 638.75 41.6205 638.717 41.6205H634.67V46.3976H638.717C638.983 46.3976 639.215 46.5967 639.215 46.8621C639.215 46.8952 639.215 46.8952 639.215 46.9284V59.1035C639.314 68.0607 645.419 68.0607 647.741 68.0607Z" fill="#111111"/>
<path d="M143.892 40C142.92 36.4959 141.216 33.2377 138.892 30.44C137.762 24.78 135.352 19.44 131.372 16.12C128.898 13.9167 125.937 12.3301 122.732 11.49C122.559 11.4533 122.378 11.4635 122.21 11.5196C122.042 11.5756 121.891 11.6754 121.774 11.8087C121.657 11.9421 121.578 12.1041 121.544 12.2784C121.51 12.4526 121.523 12.6326 121.582 12.8C122.582 15.41 124.222 20.8 123.492 25.01C122.669 23.0061 121.579 21.1224 120.252 19.41C118.382 16.99 117.332 15.64 117.902 12.76C118.392 10.26 121.712 8.18 125.792 7.47C125.962 7.42906 126.117 7.34459 126.244 7.22497C126.37 7.10536 126.464 6.95473 126.514 6.78802C126.565 6.62131 126.571 6.4443 126.532 6.27451C126.493 6.10472 126.41 5.94804 126.292 5.82C123.972 3.73 119.172 0 113.522 0C105.622 0 101.382 4.06 100.182 10.87C99.1822 16.66 100.732 20.79 101.872 23.81C102.062 24.29 102.222 24.73 102.362 25.12C101.442 24.49 100.362 23.83 99.2522 23.17C91.1023 18.5964 81.8974 16.2348 72.5522 16.32C63.2103 16.2356 54.0089 18.5972 45.8622 23.17C44.7122 23.83 43.6722 24.49 42.7522 25.12C42.8922 24.73 43.0522 24.29 43.2422 23.81C44.3822 20.81 45.9522 16.66 44.9322 10.87C43.7222 4.06 39.4922 0 31.5922 0C25.9722 0 21.1322 3.73 18.8522 5.86C18.7341 5.98804 18.6515 6.14472 18.6126 6.31451C18.5736 6.4843 18.5797 6.66131 18.6303 6.82802C18.6808 6.99473 18.774 7.14536 18.9006 7.26497C19.0272 7.38459 19.1829 7.46906 19.3522 7.51C23.4322 8.22 26.7522 10.3 27.2422 12.8C27.8122 15.68 26.7622 17.03 24.8922 19.45C23.5616 21.16 22.4715 23.0442 21.6522 25.05C20.9222 20.82 22.5922 15.45 23.5622 12.84C23.6219 12.6717 23.6353 12.4904 23.6012 12.3151C23.5671 12.1398 23.4867 11.9768 23.3683 11.8431C23.2499 11.7094 23.0979 11.6099 22.928 11.5548C22.7581 11.4997 22.5765 11.4912 22.4022 11.53C19.202 12.3744 16.2455 13.9606 13.7722 16.16C9.77223 19.52 7.38223 24.82 6.25223 30.48C3.92895 33.2777 2.22486 36.5359 1.25223 40.04C-0.647769 48.11 -1.24777 56.82 5.84223 65.15C10.3822 70.49 17.6622 73.26 26.6622 73.26C28.5246 73.5737 30.3414 74.1144 32.0722 74.87C38.9822 77.42 50.5622 81.68 72.5822 81.68C94.6022 81.68 106.192 77.42 113.102 74.87C114.833 74.1144 116.65 73.5737 118.512 73.26C127.512 73.26 134.782 70.49 139.332 65.15C146.392 56.82 145.792 48.11 143.892 40Z" fill="#258C82"/>
<path d="M118.482 68.3599C112.352 68.3599 103.172 76.7799 72.5523 76.7799C41.9323 76.7799 32.7523 68.3599 26.6323 68.3599C2.1423 68.3599 4.8923 45.2499 4.8923 45.2499C4.8923 45.2499 9.4323 56.7899 20.9723 56.7899C22.3704 56.7867 23.7644 56.6392 25.1323 56.3499C25.2506 56.3174 25.3549 56.247 25.4293 56.1494C25.5037 56.0518 25.544 55.9326 25.544 55.8099C25.544 55.6872 25.5037 55.5679 25.4293 55.4704C25.3549 55.3728 25.2506 55.3024 25.1323 55.2699C7.2923 49.9399 7.1323 29.0999 17.7323 19.0699C13.2523 38.1299 26.6123 44.0699 31.7323 45.6799C31.8396 45.7101 31.9538 45.7043 32.0575 45.6635C32.1611 45.6226 32.2486 45.5489 32.3064 45.4537C32.3643 45.3584 32.3893 45.2468 32.3777 45.136C32.3661 45.0251 32.3186 44.9211 32.2423 44.8399C28.9723 41.4299 21.4323 31.9999 28.7723 22.4399C37.9723 10.4999 25.7123 5.90989 25.7123 5.90989C27.6084 5.27294 29.5922 4.93555 31.5923 4.90989C35.1323 4.90989 39.1323 6.19989 40.1023 11.7299C41.9123 21.9599 33.1023 25.5399 39.4423 33.7899C39.4804 33.8416 39.5301 33.8836 39.5874 33.9125C39.6448 33.9415 39.7081 33.9566 39.7723 33.9566C39.8365 33.9566 39.8998 33.9415 39.9572 33.9125C40.0145 33.8836 40.0642 33.8416 40.1023 33.7899C40.1023 33.7899 51.1023 21.2399 72.5523 21.2399C94.0023 21.2399 104.972 33.7699 104.972 33.7699C105.01 33.8216 105.06 33.8636 105.117 33.8925C105.175 33.9215 105.238 33.9366 105.302 33.9366C105.367 33.9366 105.43 33.9215 105.487 33.8925C105.544 33.8636 105.594 33.8216 105.632 33.7699C112.002 25.5199 103.162 21.9399 104.972 11.7099C105.972 6.17989 109.972 4.88989 113.482 4.88989C115.482 4.91555 117.466 5.25294 119.362 5.88989C119.362 5.88989 107.112 10.4799 116.292 22.4199C123.632 31.9599 116.112 41.4199 112.802 44.8199C112.726 44.9011 112.678 45.0051 112.667 45.116C112.655 45.2268 112.68 45.3384 112.738 45.4337C112.796 45.5289 112.883 45.6026 112.987 45.6435C113.091 45.6843 113.205 45.6901 113.312 45.6599C118.442 44.0999 131.802 38.1099 127.312 19.0499C137.932 29.0499 137.742 49.9199 119.912 55.2499C119.794 55.2824 119.69 55.3528 119.615 55.4504C119.541 55.5479 119.501 55.6672 119.501 55.7899C119.501 55.9126 119.541 56.0318 119.615 56.1294C119.69 56.227 119.794 56.2974 119.912 56.3299C121.28 56.6192 122.674 56.7667 124.072 56.7699C135.592 56.7699 140.122 45.2299 140.122 45.2299C140.122 45.2299 142.972 68.3599 118.482 68.3599Z" fill="#2CE5B5"/>
<path d="M52.3523 48C52.3804 47.4199 52.2903 46.8401 52.0876 46.2958C51.8849 45.7515 51.5738 45.254 51.1732 44.8336C50.7725 44.4131 50.2907 44.0783 49.7568 43.8496C49.2229 43.6209 48.6481 43.5029 48.0673 43.5029C47.4865 43.5029 46.9118 43.6209 46.3779 43.8496C45.844 44.0783 45.3622 44.4131 44.9615 44.8336C44.5609 45.254 44.2497 45.7515 44.0471 46.2958C43.8444 46.8401 43.7543 47.4199 43.7823 48C43.7823 50.36 45.7023 51.06 48.0623 51.06C50.4223 51.06 52.3523 50.39 52.3523 48Z" fill="#258C82"/>
<path d="M101.332 48C101.36 47.4199 101.27 46.8401 101.067 46.2958C100.864 45.7515 100.553 45.254 100.153 44.8336C99.752 44.4131 99.2701 44.0783 98.7363 43.8496C98.2024 43.6209 97.6276 43.5029 97.0468 43.5029C96.466 43.5029 95.8913 43.6209 95.3574 43.8496C94.8235 44.0783 94.3417 44.4131 93.941 44.8336C93.5403 45.254 93.2292 45.7515 93.0266 46.2958C92.8239 46.8401 92.7338 47.4199 92.7618 48C92.7618 50.36 94.6818 51.06 97.0518 51.06C99.4218 51.06 101.332 50.39 101.332 48Z" fill="#258C82"/>
<path d="M72.5518 64.8701C65.988 64.8286 59.5377 63.1551 53.7818 60.0001C53.5107 59.8389 53.2816 59.616 53.1131 59.3495C52.9447 59.083 52.8416 58.7804 52.8123 58.4664C52.7831 58.1524 52.8285 57.836 52.9448 57.543C53.0612 57.2499 53.2451 56.9885 53.4818 56.7801C53.786 56.5238 54.1597 56.3642 54.5551 56.3214C54.9506 56.2787 55.3498 56.3548 55.7018 56.5401C59.5018 58.6501 65.7818 59.9401 72.5518 59.9401C79.3218 59.9401 85.5518 58.6501 89.4118 56.5401C89.7637 56.3548 90.1629 56.2787 90.5584 56.3214C90.9538 56.3642 91.3275 56.5238 91.6318 56.7801C91.8684 56.9885 92.0524 57.2499 92.1687 57.543C92.285 57.836 92.3304 58.1524 92.3012 58.4664C92.2719 58.7804 92.1689 59.083 92.0004 59.3495C91.8319 59.616 91.6028 59.8389 91.3318 60.0001C85.5727 63.1563 79.1188 64.8299 72.5518 64.8701Z" fill="#258C82"/>
<path d="M34.3023 70.52C31.7901 69.5164 29.7045 67.6712 28.4023 65.3C28.3768 65.2538 28.3369 65.2174 28.2886 65.1962C28.2403 65.1751 28.1864 65.1704 28.1352 65.1829C28.084 65.1954 28.0384 65.2244 28.0053 65.2655C27.9723 65.3065 27.9536 65.3573 27.9523 65.41V66C27.9519 66.442 27.8477 66.8777 27.6479 67.2721C27.4481 67.6664 27.1585 68.0082 26.8023 68.27L26.6123 68.41L27.9523 68.55L34.3023 70.52Z" fill="#258C82"/>
<path d="M110.772 70.52C113.287 69.5162 115.376 67.6714 116.682 65.3C116.708 65.2538 116.748 65.2174 116.796 65.1962C116.844 65.1751 116.898 65.1704 116.95 65.1829C117.001 65.1954 117.046 65.2244 117.079 65.2655C117.112 65.3065 117.131 65.3573 117.132 65.41V66C117.133 66.442 117.237 66.8777 117.437 67.2721C117.637 67.6664 117.926 68.0082 118.282 68.27L118.472 68.41L117.132 68.55L110.772 70.52Z" fill="#258C82"/>
<path d="M41.6221 32.28C40.5726 33.2608 39.5997 34.3206 38.7121 35.45C38.6791 35.4878 38.6347 35.5138 38.5856 35.524C38.5365 35.5342 38.4854 35.5281 38.4401 35.5065C38.3948 35.485 38.3578 35.4493 38.3347 35.4048C38.3115 35.3603 38.3036 35.3094 38.3121 35.26C38.4421 34.61 38.5721 34.01 38.6721 33.58C38.7627 33.153 38.6915 32.7075 38.4721 32.33L38.1221 31.76L41.6221 32.28Z" fill="#258C82"/>
<path d="M103.502 32.28C104.551 33.2608 105.524 34.3206 106.412 35.45C106.443 35.4935 106.489 35.5248 106.54 35.5384C106.592 35.552 106.647 35.5472 106.696 35.5247C106.744 35.5022 106.783 35.4634 106.806 35.4151C106.829 35.3668 106.835 35.3119 106.822 35.26C106.682 34.61 106.552 34.01 106.452 33.58C106.361 33.153 106.433 32.7075 106.652 32.33L107.002 31.76L103.502 32.28Z" fill="#258C82"/>
<path d="M178.252 68.09V28.49H187.052V68.09H178.252Z" fill="#258C82"/>
<path d="M223.022 68.0901H214.222V65.8901C211.849 67.9471 208.78 69.0202 205.642 68.8901C203.854 68.9168 202.08 68.5663 200.436 67.8616C198.792 67.1569 197.316 66.1137 196.102 64.8001C194.783 63.3922 193.756 61.7366 193.081 59.929C192.407 58.1215 192.098 56.198 192.172 54.2701C192.102 52.3457 192.413 50.4265 193.088 48.6228C193.762 46.8191 194.787 45.1665 196.102 43.7601C197.311 42.4385 198.786 41.3881 200.43 40.6779C202.075 39.9678 203.851 39.6141 205.642 39.6401C208.779 39.514 211.847 40.5866 214.222 42.6401V40.4401H223.022V68.0901ZM212.212 59.4301C213.504 58.0344 214.222 56.2023 214.222 54.3001C214.222 52.3979 213.504 50.5658 212.212 49.1701C211.599 48.5264 210.86 48.0164 210.041 47.6722C209.222 47.328 208.34 47.1571 207.452 47.1701C206.559 47.1436 205.67 47.3083 204.846 47.6532C204.021 47.9982 203.28 48.5153 202.672 49.1701C201.399 50.5761 200.728 52.4249 200.802 54.3201C200.719 56.2226 201.391 58.0808 202.672 59.4901C203.281 60.1443 204.022 60.6612 204.846 61.0061C205.67 61.351 206.559 61.516 207.452 61.4901C208.344 61.4925 209.228 61.3107 210.047 60.9563C210.866 60.6018 211.603 60.0823 212.212 59.4301Z" fill="#258C82"/>
<path d="M249.313 68.09L240.313 58.09H238.723V68.09H229.973V28.49H238.773V49.89H239.973L248.713 40.48H259.333L247.233 53.63L260.593 68.09H249.313Z" fill="#258C82"/>
<path d="M289.402 56.54H269.172C269.452 58.0376 270.202 59.4071 271.312 60.45C272.351 61.393 273.71 61.9044 275.112 61.88C276.292 61.9635 277.47 61.7074 278.509 61.1421C279.547 60.5768 280.402 59.7259 280.972 58.69L288.782 60.28C287.761 62.953 285.897 65.2207 283.472 66.74C280.938 68.2343 278.034 68.9863 275.092 68.91C273.183 68.9527 271.285 68.6128 269.509 67.9104C267.733 67.208 266.116 66.1572 264.752 64.82C263.349 63.4582 262.247 61.8176 261.517 60.004C260.787 58.1904 260.445 56.244 260.512 54.29C260.447 52.3394 260.791 50.3968 261.521 48.5868C262.251 46.7768 263.352 45.1395 264.752 43.78C266.119 42.4308 267.743 41.3707 269.528 40.6629C271.313 39.955 273.223 39.6139 275.142 39.66C277.002 39.6125 278.853 39.9424 280.582 40.6299C282.311 41.3174 283.883 42.3482 285.202 43.66C286.577 45.0581 287.656 46.7192 288.375 48.544C289.093 50.3688 289.436 52.3197 289.382 54.28L289.402 56.54ZM271.592 48C270.492 48.7692 269.693 49.8968 269.332 51.19H280.712C280.405 49.9036 279.667 48.7606 278.622 47.95C277.623 47.21 276.406 46.823 275.162 46.85C273.881 46.8489 272.632 47.2513 271.592 48Z" fill="#258C82"/>
<path d="M303.602 47H320.862V54.92H303.602V68.12H294.522V31.24H322.972V39.24H303.602V47Z" fill="#2CE5B5"/>
<path d="M352.322 33.2501C353.648 34.1565 354.783 35.3154 355.662 36.6607C356.54 38.0059 357.145 39.511 357.442 41.0901L348.532 42.9001C348.282 41.377 347.454 40.0089 346.222 39.0801C345.032 38.1872 343.58 37.7126 342.092 37.7301C340.814 37.6732 339.554 38.0542 338.522 38.8101C338.096 39.1101 337.749 39.5087 337.51 39.9719C337.272 40.4351 337.149 40.9491 337.152 41.4701C337.152 43.0901 338.152 44.1101 340.152 44.5501L347.802 46.2601C354.515 47.7601 357.875 51.3401 357.882 57.0001C357.954 58.7141 357.593 60.4186 356.833 61.9565C356.072 63.4944 354.937 64.8162 353.532 65.8001C350.35 67.9761 346.554 69.0733 342.702 68.9301C338.852 69.0539 335.052 68.0343 331.782 66.0001C330.354 65.109 329.145 63.907 328.247 62.4837C327.348 61.0604 326.782 59.4525 326.592 57.7801L335.972 55.9401C336.852 59.5601 339.268 61.3734 343.222 61.3801C344.627 61.4707 346.025 61.1212 347.222 60.3801C347.676 60.0805 348.047 59.6718 348.303 59.1913C348.558 58.7108 348.688 58.174 348.682 57.6301C348.722 56.8629 348.456 56.1112 347.942 55.5401C347.183 54.9032 346.255 54.5003 345.272 54.3801L337.572 52.7301C330.972 51.2301 327.672 47.6734 327.672 42.0601C327.613 40.4313 327.945 38.812 328.641 37.3382C329.337 35.8644 330.376 34.5791 331.672 33.5901C334.338 31.5034 337.855 30.4601 342.222 30.4601C345.796 30.321 349.326 31.2959 352.322 33.2501Z" fill="#2CE5B5"/>
<path d="M400.455 45.7208H391.489V68H385.838V45.7208H381.436V41.0475H385.838V37.8415C385.838 31.8098 389.805 28.0604 395.782 28.0604C397.467 28.0604 398.934 28.3864 400.401 29.0385L399.042 33.6574C398.064 33.277 397.032 33.114 396.162 33.114C393.337 33.114 391.489 34.8528 391.489 37.8415V41.0475H400.455V45.7208ZM416.396 40.4498C424.33 40.4498 430.796 46.1555 430.796 54.5238C430.796 62.8921 424.33 68.6521 416.396 68.6521C408.408 68.6521 401.887 62.8921 401.887 54.5238C401.887 46.1555 408.408 40.4498 416.396 40.4498ZM416.396 63.7615C421.015 63.7615 425.308 60.1208 425.308 54.5238C425.308 48.9268 421.015 45.286 416.396 45.286C411.668 45.286 407.43 48.9268 407.43 54.5238C407.43 60.1208 411.668 63.7615 416.396 63.7615ZM453.046 40.7215C453.698 40.7215 454.242 40.7215 454.948 40.9389L454.568 46.3728C454.133 46.3185 453.481 46.3185 452.992 46.3185C446.145 46.3185 442.776 51.1004 442.776 58.4906V68H437.125V41.0475H442.776V46.8075C444.95 43.2211 448.373 40.7215 453.046 40.7215Z" fill="#111111"/>
</svg>
